<mxfile host="app.diagrams.net" modified="2021-03-24T14:33:31.475Z" agent="5.0 (Windows NT 10.0; Win64; x64) AppleWebKit/537.36 (KHTML, like Gecko) Chrome/89.0.4389.90 Safari/537.36" etag="7Ghr9dF_0vzl_BlCuoM6" version="14.4.8" type="github">
  <diagram id="Wpg0r3s-uTy8Wgfl4AOv" name="Page-1">
    <mxGraphModel dx="1422" dy="762" grid="1" gridSize="10" guides="1" tooltips="1" connect="1" arrows="1" fold="1" page="1" pageScale="1" pageWidth="1169" pageHeight="1654" math="0" shadow="0">
      <root>
        <mxCell id="0" />
        <mxCell id="1" parent="0" />
        <mxCell id="pX4LxEEwmOCIOuasd6VW-21" value="Users" style="swimlane;fontStyle=1;align=center;verticalAlign=top;childLayout=stackLayout;horizontal=1;startSize=26;horizontalStack=0;resizeParent=1;resizeParentMax=0;resizeLast=0;collapsible=1;marginBottom=0;" parent="1" vertex="1">
          <mxGeometry x="70" y="300" width="160" height="98" as="geometry" />
        </mxCell>
        <mxCell id="pX4LxEEwmOCIOuasd6VW-22" value="+UserID: nvarchar&#xa;+Password: nvarchar&#xa;+Role: nvarchar" style="text;strokeColor=none;fillColor=none;align=left;verticalAlign=top;spacingLeft=4;spacingRight=4;overflow=hidden;rotatable=0;points=[[0,0.5],[1,0.5]];portConstraint=eastwest;" parent="pX4LxEEwmOCIOuasd6VW-21" vertex="1">
          <mxGeometry y="26" width="160" height="64" as="geometry" />
        </mxCell>
        <mxCell id="pX4LxEEwmOCIOuasd6VW-23" value="" style="line;strokeWidth=1;fillColor=none;align=left;verticalAlign=middle;spacingTop=-1;spacingLeft=3;spacingRight=3;rotatable=0;labelPosition=right;points=[];portConstraint=eastwest;" parent="pX4LxEEwmOCIOuasd6VW-21" vertex="1">
          <mxGeometry y="90" width="160" height="8" as="geometry" />
        </mxCell>
        <mxCell id="pX4LxEEwmOCIOuasd6VW-78" value="Milk Tea" style="swimlane;fontStyle=1;align=center;verticalAlign=top;childLayout=stackLayout;horizontal=1;startSize=26;horizontalStack=0;resizeParent=1;resizeParentMax=0;resizeLast=0;collapsible=1;marginBottom=0;shadow=1;fillColor=none;" parent="1" vertex="1">
          <mxGeometry x="400" y="55" width="160" height="118" as="geometry" />
        </mxCell>
        <mxCell id="pX4LxEEwmOCIOuasd6VW-79" value="+ MilkTeaID: nvarchar&#xa;+ MilkTeaName: nvarchar&#xa;+ Quantity: int&#xa;+ Price: float&#xa;+ CategoryID: nvarchar" style="text;strokeColor=none;fillColor=none;align=left;verticalAlign=top;spacingLeft=4;spacingRight=4;overflow=hidden;rotatable=0;points=[[0,0.5],[1,0.5]];portConstraint=eastwest;" parent="pX4LxEEwmOCIOuasd6VW-78" vertex="1">
          <mxGeometry y="26" width="160" height="84" as="geometry" />
        </mxCell>
        <mxCell id="pX4LxEEwmOCIOuasd6VW-80" value="" style="line;strokeWidth=1;fillColor=none;align=left;verticalAlign=middle;spacingTop=-1;spacingLeft=3;spacingRight=3;rotatable=0;labelPosition=right;points=[];portConstraint=eastwest;" parent="pX4LxEEwmOCIOuasd6VW-78" vertex="1">
          <mxGeometry y="110" width="160" height="8" as="geometry" />
        </mxCell>
        <mxCell id="pX4LxEEwmOCIOuasd6VW-37" value="Order" style="swimlane;fontStyle=1;align=center;verticalAlign=top;childLayout=stackLayout;horizontal=1;startSize=26;horizontalStack=0;resizeParent=1;resizeParentMax=0;resizeLast=0;collapsible=1;marginBottom=0;" parent="1" vertex="1">
          <mxGeometry x="730" y="50" width="160" height="128" as="geometry" />
        </mxCell>
        <mxCell id="pX4LxEEwmOCIOuasd6VW-38" value="+ OrderID: nvarchar&#xa;+ CusID: nvarchar&#xa;+ MilkTeaID: nvarchar&#xa;+ MilkTeaName: nvarchar&#xa;+ Pricea; float&#xa;+ Quantity: int" style="text;strokeColor=none;fillColor=none;align=left;verticalAlign=top;spacingLeft=4;spacingRight=4;overflow=hidden;rotatable=0;points=[[0,0.5],[1,0.5]];portConstraint=eastwest;" parent="pX4LxEEwmOCIOuasd6VW-37" vertex="1">
          <mxGeometry y="26" width="160" height="94" as="geometry" />
        </mxCell>
        <mxCell id="pX4LxEEwmOCIOuasd6VW-39" value="" style="line;strokeWidth=1;fillColor=none;align=left;verticalAlign=middle;spacingTop=-1;spacingLeft=3;spacingRight=3;rotatable=0;labelPosition=right;points=[];portConstraint=eastwest;" parent="pX4LxEEwmOCIOuasd6VW-37" vertex="1">
          <mxGeometry y="120" width="160" height="8" as="geometry" />
        </mxCell>
        <mxCell id="pX4LxEEwmOCIOuasd6VW-82" value="Bill" style="swimlane;fontStyle=1;align=center;verticalAlign=top;childLayout=stackLayout;horizontal=1;startSize=26;horizontalStack=0;resizeParent=1;resizeParentMax=0;resizeLast=0;collapsible=1;marginBottom=0;shadow=1;fillColor=none;" parent="1" vertex="1">
          <mxGeometry x="630" y="300" width="160" height="138" as="geometry" />
        </mxCell>
        <mxCell id="pX4LxEEwmOCIOuasd6VW-86" value="+BillID: int&#xa;+TimeOfCreate: datetime&#xa;+ SumOfMoney: float&#xa;+Discount: float&#xa;+Pay: float&#xa;+Balance: float" style="text;strokeColor=none;fillColor=none;align=left;verticalAlign=top;spacingLeft=4;spacingRight=4;overflow=hidden;rotatable=0;points=[[0,0.5],[1,0.5]];portConstraint=eastwest;" parent="pX4LxEEwmOCIOuasd6VW-82" vertex="1">
          <mxGeometry y="26" width="160" height="104" as="geometry" />
        </mxCell>
        <mxCell id="pX4LxEEwmOCIOuasd6VW-84" value="" style="line;strokeWidth=1;fillColor=none;align=left;verticalAlign=middle;spacingTop=-1;spacingLeft=3;spacingRight=3;rotatable=0;labelPosition=right;points=[];portConstraint=eastwest;" parent="pX4LxEEwmOCIOuasd6VW-82" vertex="1">
          <mxGeometry y="130" width="160" height="8" as="geometry" />
        </mxCell>
        <mxCell id="oflTX--kQTthbsdTxTq9-1" value="Category" style="swimlane;fontStyle=1;align=center;verticalAlign=top;childLayout=stackLayout;horizontal=1;startSize=26;horizontalStack=0;resizeParent=1;resizeParentMax=0;resizeLast=0;collapsible=1;marginBottom=0;shadow=1;fillColor=none;" vertex="1" parent="1">
          <mxGeometry x="400" y="510" width="160" height="78" as="geometry" />
        </mxCell>
        <mxCell id="oflTX--kQTthbsdTxTq9-5" value="+ CategoryID: nvarchar&#xa;+ CategoryName: nvarchar" style="text;strokeColor=none;fillColor=none;align=left;verticalAlign=top;spacingLeft=4;spacingRight=4;overflow=hidden;rotatable=0;points=[[0,0.5],[1,0.5]];portConstraint=eastwest;" vertex="1" parent="oflTX--kQTthbsdTxTq9-1">
          <mxGeometry y="26" width="160" height="44" as="geometry" />
        </mxCell>
        <mxCell id="oflTX--kQTthbsdTxTq9-6" value="" style="line;strokeWidth=1;fillColor=none;align=left;verticalAlign=middle;spacingTop=-1;spacingLeft=3;spacingRight=3;rotatable=0;labelPosition=right;points=[];portConstraint=eastwest;" vertex="1" parent="oflTX--kQTthbsdTxTq9-1">
          <mxGeometry y="70" width="160" height="8" as="geometry" />
        </mxCell>
        <mxCell id="oflTX--kQTthbsdTxTq9-8" value="BillInforÂ " style="swimlane;fontStyle=1;align=center;verticalAlign=top;childLayout=stackLayout;horizontal=1;startSize=26;horizontalStack=0;resizeParent=1;resizeParentMax=0;resizeLast=0;collapsible=1;marginBottom=0;shadow=1;fillColor=none;" vertex="1" parent="1">
          <mxGeometry x="940" y="300" width="160" height="138" as="geometry" />
        </mxCell>
        <mxCell id="oflTX--kQTthbsdTxTq9-9" value="+BillID: int&#xa;+MilkTeaID: nvarchar&#xa;+Quantity: int&#xa;+Price: float&#xa;+Money: float&#xa;+BillDetailsID: int" style="text;strokeColor=none;fillColor=none;align=left;verticalAlign=top;spacingLeft=4;spacingRight=4;overflow=hidden;rotatable=0;points=[[0,0.5],[1,0.5]];portConstraint=eastwest;" vertex="1" parent="oflTX--kQTthbsdTxTq9-8">
          <mxGeometry y="26" width="160" height="104" as="geometry" />
        </mxCell>
        <mxCell id="oflTX--kQTthbsdTxTq9-10" value="" style="line;strokeWidth=1;fillColor=none;align=left;verticalAlign=middle;spacingTop=-1;spacingLeft=3;spacingRight=3;rotatable=0;labelPosition=right;points=[];portConstraint=eastwest;" vertex="1" parent="oflTX--kQTthbsdTxTq9-8">
          <mxGeometry y="130" width="160" height="8" as="geometry" />
        </mxCell>
        <mxCell id="oflTX--kQTthbsdTxTq9-23" value="Extends" style="endArrow=block;endSize=16;endFill=0;html=1;entryX=1;entryY=0.5;entryDx=0;entryDy=0;exitX=0;exitY=0.5;exitDx=0;exitDy=0;" edge="1" parent="1" source="pX4LxEEwmOCIOuasd6VW-38" target="pX4LxEEwmOCIOuasd6VW-79">
          <mxGeometry width="160" relative="1" as="geometry">
            <mxPoint x="585" y="118.5" as="sourcePoint" />
            <mxPoint x="745" y="118.5" as="targetPoint" />
          </mxGeometry>
        </mxCell>
        <mxCell id="oflTX--kQTthbsdTxTq9-27" value="Extends" style="endArrow=block;endSize=16;endFill=0;html=1;entryX=0.5;entryY=0;entryDx=0;entryDy=0;exitX=0.5;exitY=1;exitDx=0;exitDy=0;" edge="1" parent="1" source="pX4LxEEwmOCIOuasd6VW-78" target="oflTX--kQTthbsdTxTq9-1">
          <mxGeometry width="160" relative="1" as="geometry">
            <mxPoint x="610" y="378" as="sourcePoint" />
            <mxPoint x="440" y="378" as="targetPoint" />
          </mxGeometry>
        </mxCell>
        <mxCell id="oflTX--kQTthbsdTxTq9-29" value="" style="endArrow=none;html=1;exitX=1;exitY=0.5;exitDx=0;exitDy=0;entryX=0;entryY=0.5;entryDx=0;entryDy=0;" edge="1" parent="1" source="pX4LxEEwmOCIOuasd6VW-86" target="oflTX--kQTthbsdTxTq9-9">
          <mxGeometry width="50" height="50" relative="1" as="geometry">
            <mxPoint x="710" y="240" as="sourcePoint" />
            <mxPoint x="1020" y="240" as="targetPoint" />
          </mxGeometry>
        </mxCell>
        <mxCell id="oflTX--kQTthbsdTxTq9-32" value="" style="endArrow=diamondThin;endFill=1;endSize=24;html=1;entryX=0.5;entryY=1;entryDx=0;entryDy=0;exitX=0.5;exitY=0;exitDx=0;exitDy=0;" edge="1" parent="1" source="pX4LxEEwmOCIOuasd6VW-82" target="pX4LxEEwmOCIOuasd6VW-37">
          <mxGeometry width="160" relative="1" as="geometry">
            <mxPoint x="590" y="390" as="sourcePoint" />
            <mxPoint x="750" y="390" as="targetPoint" />
          </mxGeometry>
        </mxCell>
        <mxCell id="oflTX--kQTthbsdTxTq9-34" value="" style="endArrow=diamondThin;endFill=1;endSize=24;html=1;entryX=0.75;entryY=1;entryDx=0;entryDy=0;exitX=0.5;exitY=0;exitDx=0;exitDy=0;" edge="1" parent="1" source="oflTX--kQTthbsdTxTq9-8" target="pX4LxEEwmOCIOuasd6VW-37">
          <mxGeometry width="160" relative="1" as="geometry">
            <mxPoint x="720" y="310" as="sourcePoint" />
            <mxPoint x="820" y="188" as="targetPoint" />
          </mxGeometry>
        </mxCell>
        <mxCell id="oflTX--kQTthbsdTxTq9-37" value="" style="endArrow=none;html=1;entryX=0;entryY=0.5;entryDx=0;entryDy=0;exitX=1;exitY=0.5;exitDx=0;exitDy=0;" edge="1" parent="1" source="pX4LxEEwmOCIOuasd6VW-22" target="pX4LxEEwmOCIOuasd6VW-79">
          <mxGeometry width="50" height="50" relative="1" as="geometry">
            <mxPoint x="270" y="250" as="sourcePoint" />
            <mxPoint x="320" y="200" as="targetPoint" />
          </mxGeometry>
        </mxCell>
        <mxCell id="oflTX--kQTthbsdTxTq9-39" value="1" style="edgeLabel;html=1;align=center;verticalAlign=middle;resizable=0;points=[];" vertex="1" connectable="0" parent="oflTX--kQTthbsdTxTq9-37">
          <mxGeometry x="-0.8028" relative="1" as="geometry">
            <mxPoint as="offset" />
          </mxGeometry>
        </mxCell>
        <mxCell id="oflTX--kQTthbsdTxTq9-38" value="" style="endArrow=none;html=1;entryX=0;entryY=0.5;entryDx=0;entryDy=0;exitX=1;exitY=0.5;exitDx=0;exitDy=0;" edge="1" parent="1" source="pX4LxEEwmOCIOuasd6VW-22" target="oflTX--kQTthbsdTxTq9-5">
          <mxGeometry width="50" height="50" relative="1" as="geometry">
            <mxPoint x="270" y="368" as="sourcePoint" />
            <mxPoint x="410" y="133" as="targetPoint" />
          </mxGeometry>
        </mxCell>
        <mxCell id="oflTX--kQTthbsdTxTq9-40" value="1" style="edgeLabel;html=1;align=center;verticalAlign=middle;resizable=0;points=[];" vertex="1" connectable="0" parent="oflTX--kQTthbsdTxTq9-38">
          <mxGeometry x="-0.7826" y="-2" relative="1" as="geometry">
            <mxPoint as="offset" />
          </mxGeometry>
        </mxCell>
        <mxCell id="oflTX--kQTthbsdTxTq9-41" value="1...*" style="text;html=1;align=center;verticalAlign=middle;resizable=0;points=[];autosize=1;" vertex="1" parent="1">
          <mxGeometry x="340" y="550" width="40" height="20" as="geometry" />
        </mxCell>
        <mxCell id="oflTX--kQTthbsdTxTq9-47" value="1...*" style="text;html=1;align=center;verticalAlign=middle;resizable=0;points=[];autosize=1;" vertex="1" parent="1">
          <mxGeometry x="680" y="130" width="40" height="20" as="geometry" />
        </mxCell>
        <mxCell id="oflTX--kQTthbsdTxTq9-48" value="1...*" style="text;html=1;align=center;verticalAlign=middle;resizable=0;points=[];autosize=1;" vertex="1" parent="1">
          <mxGeometry x="350" y="104" width="40" height="20" as="geometry" />
        </mxCell>
        <mxCell id="oflTX--kQTthbsdTxTq9-49" value="1...*" style="text;html=1;align=center;verticalAlign=middle;resizable=0;points=[];autosize=1;" vertex="1" parent="1">
          <mxGeometry x="490" y="190" width="40" height="20" as="geometry" />
        </mxCell>
        <mxCell id="oflTX--kQTthbsdTxTq9-50" value="1" style="text;html=1;align=center;verticalAlign=middle;resizable=0;points=[];autosize=1;" vertex="1" parent="1">
          <mxGeometry x="750" y="190" width="20" height="20" as="geometry" />
        </mxCell>
        <mxCell id="oflTX--kQTthbsdTxTq9-51" value="1" style="text;html=1;align=center;verticalAlign=middle;resizable=0;points=[];autosize=1;" vertex="1" parent="1">
          <mxGeometry x="900" y="190" width="20" height="20" as="geometry" />
        </mxCell>
      </root>
    </mxGraphModel>
  </diagram>
</mxfile>
